<?xml version="1.0" encoding="UTF-8" standalone="no"?>
<!-- Created with Inkscape (http://www.inkscape.org/) -->

<svg
   xmlns:dc="http://purl.org/dc/elements/1.1/"
   xmlns:cc="http://creativecommons.org/ns#"
   xmlns:rdf="http://www.w3.org/1999/02/22-rdf-syntax-ns#"
   xmlns:svg="http://www.w3.org/2000/svg"
   xmlns="http://www.w3.org/2000/svg"
   xmlns:sodipodi="http://sodipodi.sourceforge.net/DTD/sodipodi-0.dtd"
   xmlns:inkscape="http://www.inkscape.org/namespaces/inkscape"
   width="744.09448819"
   height="1052.3622047"
   id="svg3984"
   version="1.1"
   inkscape:version="0.48.2 r9819"
   sodipodi:docname="logo.svg">
  <defs
     id="defs3986" />
  <sodipodi:namedview
     id="base"
     pagecolor="#ffffff"
     bordercolor="#666666"
     borderopacity="1.0"
     inkscape:pageopacity="0.0"
     inkscape:pageshadow="2"
     inkscape:zoom="0.35"
     inkscape:cx="-487.85714"
     inkscape:cy="520"
     inkscape:document-units="px"
     inkscape:current-layer="layer1"
     showgrid="false"
     inkscape:window-width="1280"
     inkscape:window-height="708"
     inkscape:window-x="0"
     inkscape:window-y="19"
     inkscape:window-maximized="1" />
  <metadata
     id="metadata3989">
    <rdf:RDF>
      <cc:Work
         rdf:about="">
        <dc:format>image/svg+xml</dc:format>
        <dc:type
           rdf:resource="http://purl.org/dc/dcmitype/StillImage" />
        <dc:title></dc:title>
      </cc:Work>
    </rdf:RDF>
  </metadata>
  <g
     inkscape:label="Layer 1"
     inkscape:groupmode="layer"
     id="layer1">
    <g
       id="g3908"
       inkscape:export-filename="/home/fred/Desktop/logos/play.png"
       inkscape:export-xdpi="72"
       inkscape:export-ydpi="72">
      <path
         transform="matrix(0.80793503,0,0,0.82650428,-368.62957,129.0058)"
         d="m 1154.2858,539.50507 a 80,81.428574 0 1 1 -160.00003,0 80,81.428574 0 1 1 160.00003,0 z"
         sodipodi:ry="81.428574"
         sodipodi:rx="80"
         sodipodi:cy="539.50507"
         sodipodi:cx="1074.2858"
         id="path3875"
         style="fill:#54717e;fill-opacity:0.29411766;stroke:#000000;stroke-width:8;stroke-miterlimit:4;stroke-opacity:1;stroke-dasharray:none"
         sodipodi:type="arc" />
      <path
         transform="matrix(0.80793503,0,0,0.82650428,-426.33926,-13.861396)"
         d="m 1154.2858,539.50507 a 80,81.428574 0 1 1 -160.00003,0 80,81.428574 0 1 1 160.00003,0 z"
         sodipodi:ry="81.428574"
         sodipodi:rx="80"
         sodipodi:cy="539.50507"
         sodipodi:cx="1074.2858"
         id="path3875-1"
         style="fill:#cccccc;fill-opacity:0.39215687;stroke:#000000;stroke-width:8;stroke-miterlimit:4;stroke-opacity:1;stroke-dasharray:none"
         sodipodi:type="arc" />
      <path
         transform="matrix(0.80793503,0,0,0.82650428,-562.53402,-71.244406)"
         d="m 1154.2858,539.50507 a 80,81.428574 0 1 1 -160.00003,0 80,81.428574 0 1 1 160.00003,0 z"
         sodipodi:ry="81.428574"
         sodipodi:rx="80"
         sodipodi:cy="539.50507"
         sodipodi:cx="1074.2858"
         id="path3875-9"
         style="fill:#54717e;fill-opacity:0.49019608;stroke:#000000;stroke-width:8;stroke-miterlimit:4;stroke-opacity:1;stroke-dasharray:none"
         sodipodi:type="arc" />
      <path
         transform="matrix(0.80793503,0,0,0.82650428,-704.73055,-31.33606)"
         d="m 1154.2858,539.50507 a 80,81.428574 0 1 1 -160.00003,0 80,81.428574 0 1 1 160.00003,0 z"
         sodipodi:ry="81.428574"
         sodipodi:rx="80"
         sodipodi:cy="539.50507"
         sodipodi:cx="1074.2858"
         id="path3875-8"
         style="fill:#54717e;fill-opacity:0.58823532;stroke:#000000;stroke-width:8;stroke-miterlimit:4;stroke-opacity:1;stroke-dasharray:none"
         sodipodi:type="arc" />
      <path
         transform="matrix(0.80793503,0,0,0.82650428,-744.89648,108.93352)"
         d="m 1154.2858,539.50507 a 80,81.428574 0 1 1 -160.00003,0 80,81.428574 0 1 1 160.00003,0 z"
         sodipodi:ry="81.428574"
         sodipodi:rx="80"
         sodipodi:cy="539.50507"
         sodipodi:cx="1074.2858"
         id="path3875-6"
         style="fill:#54717e;fill-opacity:0.68627453;stroke:#000000;stroke-width:8;stroke-miterlimit:4;stroke-opacity:1;stroke-dasharray:none"
         sodipodi:type="arc" />
      <path
         transform="matrix(0.80793503,0,0,0.82650428,-694.11203,248.25853)"
         d="m 1154.2858,539.50507 a 80,81.428574 0 1 1 -160.00003,0 80,81.428574 0 1 1 160.00003,0 z"
         sodipodi:ry="81.428574"
         sodipodi:rx="80"
         sodipodi:cy="539.50507"
         sodipodi:cx="1074.2858"
         id="path3875-82"
         style="fill:#54717e;fill-opacity:0.78431374;stroke:#000000;stroke-width:8;stroke-miterlimit:4;stroke-opacity:1;stroke-dasharray:none"
         sodipodi:type="arc" />
      <path
         transform="matrix(0.80793503,0,0,0.82650428,-563.91906,300.21022)"
         d="m 1154.2858,539.50507 a 80,81.428574 0 1 1 -160.00003,0 80,81.428574 0 1 1 160.00003,0 z"
         sodipodi:ry="81.428574"
         sodipodi:rx="80"
         sodipodi:cy="539.50507"
         sodipodi:cx="1074.2858"
         id="path3875-3"
         style="fill:#54717e;fill-opacity:0.91764706;stroke:#000000;stroke-width:8;stroke-miterlimit:4;stroke-opacity:1;stroke-dasharray:none"
         sodipodi:type="arc" />
      <path
         transform="matrix(0.80793503,0,0,0.82650428,-426.33927,270.92837)"
         d="m 1154.2858,539.50507 a 80,81.428574 0 1 1 -160.00003,0 80,81.428574 0 1 1 160.00003,0 z"
         sodipodi:ry="81.428574"
         sodipodi:rx="80"
         sodipodi:cy="539.50507"
         sodipodi:cx="1074.2858"
         id="path3875-85"
         style="fill:#54717e;fill-opacity:1;stroke:#000000;stroke-width:8;stroke-miterlimit:4;stroke-opacity:1;stroke-dasharray:none"
         sodipodi:type="arc" />
    </g>
  </g>
</svg>
